<?xml version="1.0" encoding="UTF-8"?>
<svg width="683px" height="503px" viewBox="0 0 683 503" version="1.1" xmlns="http://www.w3.org/2000/svg" xmlns:xlink="http://www.w3.org/1999/xlink">
    <!-- Generator: Sketch 54.1 (76490) - https://sketchapp.com -->
    <title>laptopsketch-vector-3</title>
    <desc>Created with Sketch.</desc>
    <g id="Page-1" stroke="none" stroke-width="1" fill="none" fill-rule="evenodd">
        <g id="Desktop-HD" transform="translate(-101.000000, -166.000000)" fill="#2F2F2F">
            <g id="hero" transform="translate(-69.000000, -33.000000)">
                <g id="laptopsketch-vector-3" transform="translate(136.000000, 199.000000)">
                    <path d="M102.023794,0.848611919 C95.5764482,2.32573043 90.154639,7.54245532 88.4627638,13.8956253 C87.16913,18.7534728 86.9166501,382.561521 88.2076811,384.96704 C88.8505936,386.1711 88.6007167,386.766628 86.5522463,388.90949 C85.224775,390.295589 83.1138353,393.304438 81.8618477,395.592931 C78.1839713,402.31278 77.2104923,404.013547 75.3364152,406.975586 C74.3629362,408.520319 73.5638506,409.945426 73.5638506,410.145669 C73.5638506,410.348513 71.5726436,414.020505 69.1363433,418.30883 C63.2017658,428.757883 62.2386983,430.479454 59.2583951,435.966637 C57.8528373,438.554195 56.4707054,440.980518 56.1843881,441.362801 C55.9006736,441.745083 54.7293754,443.773521 53.5867089,445.869573 C51.4185058,449.848431 43.680129,463.613199 40.9132623,468.408633 C34.1952164,480.056544 34,480.654673 34,489.569396 C34,499.040638 34.3539923,499.732387 40.1428084,501.560581 C44.9321166,503.074108 707.707303,503.609823 711.445046,502.104099 C716.721094,499.97684 716.996999,499.352705 716.996999,489.525186 C716.996999,479.884907 717.335374,481.112372 710.825559,467.155162 C709.25602,463.795238 707.9754,460.916417 707.9754,460.757783 C707.9754,460.599149 707.080008,458.510899 705.984193,456.115782 C703.201709,450.03307 701.835195,446.998216 696.533118,435.121455 C690.007686,420.501102 689.963437,420.407482 687.488093,415.011319 C686.262134,412.340543 684.091328,407.5035 682.662345,404.2606 C677.800156,393.223821 675.939093,389.715664 674.249821,388.386778 L672.560548,387.060492 L672.57096,200.85774 C672.581371,20.6414799 672.542328,14.5587683 671.287738,11.6383385 C668.544297,5.24355961 664.410916,2.0890794 656.969268,0.71598332 C651.354845,-0.321640425 106.55802,-0.191612387 102.023794,0.848611919 M659.723933,5.0133727 C662.807244,6.27819115 665.729234,8.83639683 667.670289,11.9633812 C669.637364,15.1371146 669.798685,384.588764 667.83161,386.037981 C666.939141,386.69766 660.06739,386.905434 639.158116,386.905434 L611.658102,386.905434 L610.632933,383.614828 L609.610367,380.324222 L566.626145,379.898287 C520.090261,379.43859 152.739091,379.864524 150.173567,380.38136 C149.119777,380.594327 148.609795,381.199466 148.601989,382.243526 C148.578572,385.684767 148.071191,385.837999 134.936546,386.31328 C106.164177,387.35734 93.8179225,387.076846 92.3712381,385.347136 C90.2792699,382.840873 90.2922797,18.1939756 92.3868498,13.3191004 C93.9558259,9.6622947 97.5309058,6.11456987 100.8588,4.90948618 C104.876212,3.45507483 656.182678,3.55896135 659.723933,5.0133727 M109.711262,26.253866 C109.080861,26.4201885 108.38273,27.2414057 108.158703,28.0808145 C107.062013,32.1609128 107.713254,365.250265 108.820364,366.35475 C110.297379,367.828264 647.782289,368.049161 649.777692,366.578246 C651.606377,365.229475 651.614192,27.9950544 649.785507,26.6566782 C648.641927,25.8198683 112.855454,25.4222536 109.711262,26.253866 M647.277677,30.2827241 C647.282884,31.6808033 647.277677,234.108093 647.269868,360.409058 L647.269868,363.707692 L379.480966,363.533258 L111.689461,363.358823 L111.512438,196.734858 C111.413513,105.091677 111.481199,29.7203682 111.663428,29.2413243 C111.926359,28.5487934 166.160472,28.374359 379.631956,28.374359 L647.269868,28.374359 L647.277677,30.2827241 M606.165443,384.756308 C606.500953,385.693214 606.883277,387.434368 607.01592,388.625538 L607.255198,390.792308 L378.726488,390.792308 L150.200378,390.792308 L150.278404,388.04239 C150.320017,386.527863 150.749157,384.786709 151.230314,384.173159 C152.007967,383.175451 176.931894,383.053846 378.830522,383.053846 L605.556845,383.053846 L606.165443,384.756308 M145.185876,389.914285 C145.618148,390.196127 146.092085,391.052094 146.235307,391.816723 C146.4879,393.150256 147.1962,393.223327 163.502737,393.57563 C172.856471,393.776574 178.632246,394.047978 176.340685,394.17846 C174.049124,394.311553 171.760168,394.361136 171.254983,394.293285 C170.749798,394.222824 169.880046,394.546422 169.320176,395.01094 C168.525942,395.671183 167.955656,395.665963 166.671862,394.977015 C165.372442,394.280237 164.023547,394.272408 160.078417,394.93787 C156.349422,395.569406 154.878136,395.579845 154.15942,394.982234 C153.471951,394.40811 153.068324,394.400281 152.732402,394.945699 C152.474602,395.365853 150.805408,395.645086 149.024241,395.566797 C142.696408,395.290173 142.172995,396.099166 133.285385,420.000993 C131.506822,424.78449 129.793359,429.325289 129.47827,430.092527 C124.244137,442.76762 121.970805,441.963846 164.69539,442.532751 L198.186028,442.976392 L198.527159,441.40538 C198.71465,440.541585 198.954222,439.074959 199.060988,438.148531 C199.167754,437.222104 199.618254,436.34526 200.063546,436.19651 C200.620812,436.013834 200.758826,436.754976 200.511442,438.60783 C200.266661,440.450247 200.467173,441.543692 201.157245,442.120426 C202.636343,443.349573 227.674248,444.132469 230.94493,443.049463 C232.632351,442.490997 233.996872,442.444023 235.192129,442.900712 C238.775296,444.265562 271.948241,444.166395 273.896067,442.783278 C275.547033,441.614153 275.672027,441.614153 276.674585,442.783278 C278.020877,444.3569 441.857046,444.038522 443.42989,442.459681 C443.916847,441.971675 444.601711,441.85946 445.026171,442.193496 C446.072997,443.015537 482.347361,443.811482 483.542618,443.039024 C484.073843,442.697159 484.740479,441.207046 485.02432,439.732592 L485.542525,437.049867 L485.620647,439.330705 C485.737829,442.624089 487.308069,442.965954 502.367268,442.965954 C517.410843,442.965954 518.983686,442.624089 519.145137,439.330705 L519.254507,437.049867 L519.535744,439.317657 C519.98364,442.929419 522.269993,443.694047 531.652371,443.375669 C535.980296,443.229529 542.019079,443.07034 545.073625,443.025976 C551.526452,442.932028 552.31027,442.574506 553.057631,439.401165 C553.518547,437.443925 553.625313,437.342148 553.693018,438.790506 C553.870093,442.569286 553.992483,442.600602 569.205321,442.830252 C585.392072,443.07295 587.032621,442.754572 587.188864,439.330705 L587.293026,437.049867 L587.589887,439.13759 C588.050803,442.384001 587.920601,442.363124 607.258248,442.292663 C629.809288,442.211764 628.973389,442.676282 625.62719,432.094133 C624.674109,429.079981 623.528329,425.358614 623.080433,423.829356 C621.58571,418.709214 616.921864,404.361333 616.234395,402.777272 C614.471456,398.706211 613.797008,397.58406 612.807471,397.075177 C611.729395,396.52193 508.075337,395.780788 391.955709,395.496336 C357.392204,395.410217 335.205731,395.175348 342.653303,394.971795 C350.100875,394.768242 413.379197,394.499448 483.271797,394.376794 C562.28637,394.235873 610.437789,393.901837 610.583615,393.494731 C611.547112,390.804177 611.909075,390.772861 641.126473,390.7833 C656.662212,390.788519 670.096487,390.986853 670.979258,391.224331 C672.671888,391.678411 672.723969,391.774968 680.484027,409.21529 C682.697466,414.189292 685.712952,420.875227 687.184238,424.072054 C688.655524,427.266271 689.858593,429.988141 689.858593,430.118624 C689.858593,430.249107 691.108535,433.057095 692.63711,436.355699 C694.163082,439.654302 695.413024,442.46751 695.413024,442.611041 C695.413024,442.882445 698.363408,449.510968 701.610654,456.536158 C705.902122,465.823919 707.219769,468.767609 707.219769,469.091206 C707.219769,469.276492 708.274408,471.693032 709.563411,474.464485 C713.943416,483.8749 714.037162,484.639529 711.196148,487.671947 C711.110214,487.765895 645.889273,488.000764 566.262749,488.193878 C422.160041,488.546182 421.485593,488.554011 421.269457,489.939737 C420.199194,496.737887 421.490801,496.549992 375.774166,496.549992 C329.484641,496.549992 331.294453,496.805738 329.846604,490.114584 L329.43256,488.199097 L184.444477,488.199097 C39.4928498,488.199097 39.4563931,488.199097 37.9356301,486.782055 C35.4539741,484.464682 36.180503,481.742812 41.8286792,472.194086 C42.6203092,470.855333 44.2504422,467.924691 45.4509074,465.685607 C47.9742282,460.969961 47.8179854,461.251804 57.3722309,444.3569 C61.3772539,437.276907 65.7859041,429.403579 67.1712567,426.859165 C68.5566093,424.317362 71.3741872,419.306825 73.4313837,415.726379 C75.4885802,412.143323 78.2098085,407.336339 79.4753749,405.039843 C80.7435454,402.743347 82.3840945,399.768341 83.1236436,398.426978 C87.8343632,389.893407 85.0141812,390.665865 113.497238,390.10218 C126.673712,389.841214 139.016891,389.577639 140.925657,389.515008 C142.834423,389.452376 144.751001,389.632442 145.185876,389.914285 M188.226677,394.744254 C186.679143,394.893864 184.328457,394.891285 183.004797,394.739095 C181.678339,394.586905 182.94603,394.46567 185.820023,394.468249 C188.691217,394.470829 189.77701,394.597223 188.226677,394.744254 M202.484721,394.737951 C200.867474,394.879823 198.045783,394.882403 196.214296,394.740531 C194.38281,394.598659 195.704824,394.480003 199.153558,394.477423 C202.602291,394.477423 204.101968,394.5935 202.484721,394.737951 M324.810825,396.02383 C322.508501,396.160543 318.744036,396.160543 316.44444,396.02383 C314.144843,395.887117 316.027075,395.776199 320.626268,395.776199 C325.22819,395.776199 327.110422,395.887117 324.810825,396.02383 M149.569635,399.372667 C149.551392,399.845237 149.087488,401.472119 148.537579,402.98796 C146.377038,408.92479 146.184179,408.842154 162.340025,408.829242 C175.371036,408.818913 176.366605,408.663972 176.796628,406.567101 C176.937363,405.882778 177.362174,405.417954 177.742679,405.53416 C178.120579,405.647784 178.352531,406.086784 178.253495,406.51029 C177.932932,407.897013 180.304576,409.157201 183.914166,409.518731 C187.698371,409.895754 188.618361,410.980342 186.973847,413.12886 C186.158106,414.195372 184.466681,414.241854 166.277996,413.707307 C143.645738,413.038478 144.15916,412.937766 142.300937,418.479495 C140.361923,424.266548 139.05361,423.990236 168.495874,423.990236 C194.213876,423.990236 196.859172,423.762989 196.859172,421.555077 C196.859172,419.899789 198.063237,420.413677 198.534959,422.267806 C198.967589,423.982489 199.801574,424.310448 203.124481,424.072871 C205.894874,423.871448 207.474233,425.405365 206.887837,427.724318 L206.390052,429.681741 L197.974626,429.157524 C188.008509,428.532594 144.143522,427.670089 140.374954,428.023871 C137.617592,428.282106 137.33091,428.672041 134.333778,436.212512 C133.239173,438.970464 130.833648,439.357817 130.833648,436.778047 C130.833648,434.012347 143.346025,401.903372 145.27722,399.716119 C146.496923,398.334561 149.61394,398.084072 149.569635,399.372667 M568.319927,399.829302 C569.849807,399.923171 580.233183,400.032686 591.395833,400.074406 L611.693457,400.147416 L612.673414,402.405506 C614.899168,407.531841 617.07019,413.993213 621.151607,427.612157 C622.181084,431.05405 623.304386,434.412503 623.645807,435.077415 C625.728216,439.121639 619.817197,440.245469 599.595156,439.656175 L591.950968,439.431931 L591.950968,436.652341 L591.950968,433.870144 L604.062301,433.679797 C618.756446,433.44773 619.467957,433.095719 616.85387,427.36966 C614.523865,422.264186 614.724548,422.334588 604.041451,422.845657 L594.460806,423.301969 L593.986465,421.408927 C593.285378,418.608478 593.965614,418.355551 602.863417,418.105232 C612.060941,417.84709 612.832396,417.487255 611.675213,414.008858 C610.246977,409.714314 611.138321,409.870764 587.992046,409.860334 C564.699819,409.847296 565.888278,410.071541 565.888278,405.698772 C565.888278,401.286891 559.820883,402.186477 559.4951,406.645293 L559.283992,409.534397 L546.94852,409.722136 C533.755586,409.925521 534.115251,410.016783 534.558317,406.58532 C534.831975,404.457605 533.169176,402.927005 530.591575,402.937435 C527.083537,402.95308 526.413726,403.529337 526.150493,406.760022 L525.923747,409.534397 L519.590514,409.573509 C516.105932,409.596977 510.789143,409.440527 507.776296,409.226712 L502.295312,408.838196 L501.946072,406.055999 C501.338811,401.190414 494.111627,401.771885 494.484324,406.655723 L494.648518,408.838196 L482.834301,408.838196 L471.020083,408.838196 L470.670843,406.055999 C470.334634,403.357242 470.240809,403.268587 467.436463,403.065202 C464.431435,402.846173 462.004998,404.744429 462.763423,406.72091 C463.537484,408.741718 461.163173,409.234535 452.155907,408.924243 C447.240484,408.754756 442.202566,408.587876 440.959375,408.553979 C438.96558,408.496614 438.702346,408.264547 438.702346,406.5436 C438.702346,403.902208 437.534738,402.927005 434.37594,402.927005 C431.714939,402.927005 430.057352,404.817439 430.542118,407.297166 C430.667219,407.92818 427.672616,408.191537 418.720081,408.332342 L406.731244,408.522689 L406.731244,406.559245 C406.731244,401.472023 398.985412,401.328611 398.284325,406.405403 L398.044549,408.141995 L386.227725,408.141995 L374.413507,408.141995 L374.197187,405.5345 L373.980866,402.927005 L370.634417,402.927005 C367.04819,402.927005 365.997864,403.654496 365.619955,406.405403 L365.377572,408.141995 L355.995003,408.350594 C343.740326,408.619166 342.09577,408.319304 342.09577,405.816109 C342.09577,403.466757 340.954224,402.233412 338.783202,402.233412 C335.991888,402.233412 334.451583,403.485009 334.451583,405.750922 L334.451583,407.829095 L322.814592,407.638748 L311.180206,407.448401 L310.823148,405.385873 C309.970898,400.4551 303.616814,400.572438 302.329317,405.542322 L301.742906,407.805628 L290.833064,407.756085 C279.375905,407.701328 278.156171,407.398859 278.156171,404.606232 C278.156171,401.237349 272.305097,400.723672 271.478909,404.019546 C270.715273,407.059884 269.735315,407.294559 258.231244,407.166792 C246.013054,407.033809 246.185068,407.075529 246.185068,404.290725 C246.185068,400.442063 239.22633,400.968777 238.665982,404.861766 C238.361048,406.976444 237.021426,407.182437 224.988282,406.95037 L214.563205,406.7522 L214.563205,404.880019 C214.563205,402.212552 213.439903,401.417266 210.036116,401.667585 C207.143157,401.878792 206.452496,402.426366 205.600246,405.187703 C205.261431,406.280243 204.086003,406.405403 194.080536,406.405403 L182.938736,406.405403 L182.938736,403.970003 L182.938736,401.537211 L179.102308,401.537211 C175.583845,401.537211 175.195511,401.696268 174.424055,403.448504 C173.160015,406.332393 172.941088,406.381936 161.827957,406.394973 L151.491493,406.405403 L151.874615,404.491502 C152.085723,403.440682 152.60437,401.667585 153.029192,400.554185 L153.800648,398.530769 L359.669843,399.093988 C472.899203,399.40428 566.790047,399.732824 568.319927,399.829302 M210.056015,406.846952 C209.531562,408.919019 211.063585,410.399066 213.732353,410.399066 C215.491725,410.399066 216.054931,410.700409 216.04718,411.641773 C216.023929,414.524532 215.07578,414.879211 206.656112,415.16722 C196.115381,415.524565 195.389414,415.332558 195.389414,412.16179 L195.389414,409.687043 L200.946549,409.687043 C207.348494,409.687043 209.16987,408.964353 209.16987,406.420271 C209.16987,405.433573 209.448889,404.804219 209.792496,405.022893 C210.136104,405.241567 210.254945,406.062927 210.056015,406.846952 M242.990954,408.407227 L243.212366,410.590513 L248.349667,410.789681 L253.489603,410.988849 L253.270826,413.141882 L253.052049,415.297436 L238.644413,415.297436 L224.23414,415.297436 L224.012728,413.111629 L223.793951,410.928343 L231.042579,410.918258 C240.41835,410.905653 241.454245,410.630851 241.454245,408.160158 C241.454245,405.500381 242.71946,405.704591 242.990954,408.407227 M280.713363,410.510657 L285.767486,410.710959 L285.767486,412.703706 C285.767486,414.439656 285.453728,414.755517 283.333245,415.145848 C281.147395,415.54902 261.393697,415.071377 261.017187,414.606574 C260.933518,414.503855 260.656365,413.569113 260.402744,412.53422 L259.94518,410.651896 L265.930119,410.651896 C272.819728,410.651896 274.574159,409.994495 274.704892,407.375162 C274.783331,405.785587 274.859156,405.862626 275.227822,407.911868 L275.65924,410.307787 L280.713363,410.510657 M307.867591,408.364166 L308.091571,410.477997 L313.069803,410.80508 L318.045369,411.129721 L318.045369,413.082452 L318.045369,415.035183 L307.379633,415.220693 C294.306109,415.450139 293.514178,415.308566 293.514178,412.745606 L293.514178,410.80508 L299.06036,410.80508 C304.990509,410.80508 306.31306,410.246111 306.31306,407.744174 C306.31306,405.449715 307.616946,405.967189 307.867591,408.364166 M371.157622,408.206549 C371.175845,410.703532 372.01146,411.182268 377.394805,411.784467 C381.937327,412.293438 382.601134,412.537845 382.601134,413.712007 C382.601134,415.878915 358.415132,415.798286 358.094942,413.631378 C357.845038,411.933127 359.430366,411.381321 364.587235,411.368723 C368.590902,411.358644 369.759723,410.557392 369.759723,407.82608 C369.759723,406.717429 370.053881,406.079955 370.454768,406.319323 C370.83483,406.548612 371.152416,407.397738 371.157622,408.206549 M404.132906,410.316716 C404.727502,410.833771 407.389149,411.417457 410.045692,411.612019 C414.30994,411.926517 414.879017,412.134405 414.879017,413.38973 C414.879017,414.831621 396.745115,415.980336 392.251194,414.823625 C388.73976,413.917446 390.408712,411.61735 394.63213,411.540058 C400.733757,411.430783 401.899981,410.892406 402.249594,408.029946 C402.520097,405.815137 402.573687,405.759167 402.800807,407.472912 C402.936059,408.520349 403.535758,409.799661 404.132906,410.316716 M468.369667,411.860104 C468.815655,412.029366 471.489019,412.245502 474.308484,412.341851 C478.91959,412.503301 479.434783,412.659544 479.434783,413.909483 C479.434783,415.242751 478.978542,415.297436 467.813463,415.297436 C456.650948,415.297436 456.194707,415.242751 456.194707,413.909483 C456.194707,412.709021 456.7099,412.495489 459.954847,412.339247 C466.283263,412.037178 466.772825,411.789795 466.903545,408.86025 L467.018887,406.269231 L467.288018,408.912331 C467.43668,410.365385 467.923679,411.693445 468.369667,411.860104 M531.420864,411.540767 C531.774578,411.944469 534.747831,412.449096 538.0261,412.662161 C542.711537,412.970544 543.990548,413.295748 543.990548,414.176042 C543.990548,415.129227 542.24248,415.297436 532.369229,415.297436 C522.495977,415.297436 520.750473,415.129227 520.750473,414.176042 C520.750473,413.360228 521.778295,412.95092 524.510613,412.673375 C529.111466,412.205193 529.952179,411.66412 530.070084,409.084915 C530.16492,407.074816 530.16492,407.074816 530.469935,408.941937 C530.639103,409.970816 531.067149,411.139869 531.420864,411.540767 M340.269338,409.866217 C340.87012,410.633949 342.464405,410.970867 345.496927,410.970867 C349.988493,410.970867 350.766129,411.501099 350.128936,414.119118 C349.835046,415.314901 348.810335,415.408797 337.931227,415.223768 L326.050814,415.022169 L325.832347,412.997899 C325.712711,411.882203 325.868758,410.932204 326.178253,410.879733 C326.490347,410.830024 328.825858,410.697466 331.36683,410.584239 C333.910404,410.471013 336.563211,410.02363 337.262823,409.592816 C338.958539,408.546161 339.25763,408.573777 340.269338,409.866217 M440.830196,411.847597 C445.421571,411.847597 448.553111,413.399626 446.530012,414.672033 C444.930653,415.680211 425.043305,415.395458 423.596389,414.346236 C421.340749,412.70955 423.033125,411.847597 428.497818,411.847597 C433.262306,411.847597 433.722219,411.724461 434.083948,410.34944 L434.479266,408.848718 L435.481773,410.34944 C436.337004,411.626978 437.122472,411.847597 440.830196,411.847597 M505.02555,411.769102 C510.748178,412.133765 511.712665,412.35304 511.712665,413.301642 C511.712665,415.20838 489.41628,416.154599 488.639545,414.281229 C487.528456,411.592729 491.849361,410.930137 505.02555,411.769102 M577.105745,413.650896 C578.816255,415.041587 575.898637,415.423745 564.797454,415.263193 C554.584471,415.11621 553.235039,414.980533 553.032097,414.071496 C552.694739,412.560956 575.276633,412.167492 577.105745,413.650896 M192.784832,417.610248 C195.937155,421.331366 195.178024,421.467771 170.165303,421.675106 C145.270954,421.882441 145.186034,421.868801 147.013095,418.251349 C147.777372,416.73453 147.921479,416.729074 168.744827,417.222858 C191.449276,417.760293 190.793078,417.858504 191.045264,413.845479 C191.14305,412.263185 191.19709,412.312291 191.454423,414.208316 C191.619116,415.408677 192.216127,416.939137 192.784832,417.610248 M607.068871,414.007692 C607.827111,414.915672 606.61964,415.039487 596.840428,415.039487 C587.622105,415.039487 585.682362,414.864082 585.35258,414.007692 C585.007218,413.117769 586.417231,412.975897 595.578427,412.975897 C604.181329,412.975897 606.370356,413.171938 607.068871,414.007692 M221.53868,418.125724 C222.148258,418.595782 223.5281,418.978981 224.606978,418.978981 C226.106695,418.978981 226.51223,419.257439 226.338794,420.169454 C226.08629,421.48255 203.769076,422.404784 202.521862,421.152999 C200.540094,419.170581 202.804972,418.337761 210.709092,418.148716 C218.026588,417.969889 218.646369,417.852375 218.847861,416.592926 C219.294205,413.795571 219.921638,413.154351 220.176692,415.231291 C220.316972,416.355343 220.929101,417.658221 221.53868,418.125724 M290.953377,416.003433 C290.953377,416.859084 291.28101,417.894188 291.682298,418.305109 C292.083585,418.716029 292.312167,419.948791 292.190257,421.046313 L291.969294,423.035897 L280.199887,422.913662 C267.828549,422.783623 267.033594,422.598969 267.973318,420.089233 C268.542231,418.575588 268.836848,418.528774 277.898834,418.528774 C287.372267,418.528774 290.138103,417.639313 288.601527,415.093166 C288.1977,414.422169 289.640303,413.688754 290.445418,414.15429 C290.724795,414.318139 290.953377,415.147782 290.953377,416.003433 M389.157657,418.837667 C390.112331,419.550212 390.467438,420.503928 390.313044,421.948204 L390.089171,424.033771 L379.451385,424.242053 C366.533706,424.496926 365.566167,424.310567 365.856943,421.633039 L366.070522,419.648873 L375.877151,419.284378 C385.966836,418.906181 386.797994,418.634865 387.083624,415.628469 C387.140235,415.025546 387.320362,415.269456 387.48505,416.1711 C387.647164,417.072745 388.401124,418.27037 389.157657,418.837667 M422.509124,417.781973 C423.599893,417.969268 423.916824,418.561942 423.916824,420.409236 L423.916824,422.795323 L411.242237,422.982618 C397.704014,423.182742 396.803403,422.972356 396.803403,419.60361 C396.803403,418.4978 397.7674,418.36695 407.190806,418.195049 C417.208458,418.012885 417.604621,417.951309 418.275458,416.460645 C418.956859,414.954588 418.999116,414.946891 420.037064,416.229734 C420.620745,416.950691 421.735285,417.651123 422.509124,417.781973 M452.024401,416.725766 C452.024401,417.804885 452.630383,418.35138 454.190521,418.675948 C456.112121,419.07819 456.330062,419.386113 456.138699,421.433389 C455.872918,424.290697 453.560619,424.665198 439.623037,424.104833 L430.408392,423.73588 L430.37384,421.655315 C430.326,418.667625 431.426335,418.348606 440.343304,418.75917 L448.324723,419.125349 L449.547318,417.177941 C451.009116,414.850484 452.024401,414.66462 452.024401,416.725766 M485.048114,416.714563 C485.182648,417.610342 485.893397,418.288228 486.956983,418.532752 C488.14495,418.808748 488.589168,419.297795 488.447018,420.174205 C487.977416,423.081854 488.17541,423.035854 475.808373,423.035854 L463.941399,423.035897 L463.941399,420.77704 L463.941399,418.518225 L472.447544,418.518225 C480.991766,418.518225 483.57077,417.988021 483.57077,416.235201 C483.57077,414.734167 484.809505,415.138477 485.048114,416.714563 M517.138784,416.918168 C517.657318,418.223284 518.319445,418.618387 520.002685,418.618387 C522.044909,418.618387 522.177866,418.766232 521.970453,420.825868 L521.747085,423.035897 L508.983183,423.035897 L496.219282,423.035897 L496.219282,420.996654 L496.219282,418.957411 L505.084875,418.618387 C513.429276,418.297206 513.987696,418.187597 514.647164,416.747381 C515.556592,414.761668 516.303812,414.81265 517.138784,416.918168 M549.184865,416.925275 C549.35195,418.198813 549.922609,418.641783 551.632018,418.818971 C553.487947,419.010002 555.318171,423.110242 553.688449,423.417553 C553.593339,423.436933 548.202919,423.647343 541.709736,423.888208 L529.903249,424.325641 L529.198922,422.332276 C528.813341,421.233157 528.497164,420.026064 528.497164,419.646771 C528.497164,419.256404 532.185888,418.957399 537.00822,418.957399 C546.460093,418.957399 547.688811,418.691617 547.688811,416.662261 C547.688811,414.696582 548.920099,414.915299 549.184865,416.925275 M325.55384,421.359712 C324.394543,423.578091 300.875141,423.602117 300.189984,421.386408 C299.390199,418.804973 300.351504,418.532681 310.193805,418.532681 C318.822102,418.532681 319.892823,418.393865 321.002622,417.136517 C322.74287,415.166405 326.814738,418.946458 325.55384,421.359712 M354.501928,416.356822 C354.501928,416.95801 355.290565,417.658934 356.255331,417.913816 C358.584438,418.531626 358.702734,421.676088 356.428831,422.565403 C354.218019,423.429784 332.827557,423.005905 331.949541,422.080574 C329.407501,419.401548 331.468473,418.592576 341.373752,418.382022 C350.085561,418.196402 351.092388,418.035716 351.873138,416.719751 C352.887851,415.007613 354.501928,414.785976 354.501928,416.356822 M584.152612,417.82722 C585.594578,418.722769 586.244478,419.734657 586.391721,421.306602 L586.597353,423.525181 L578.945795,424.017598 C574.734138,424.288156 569.311533,424.401791 566.88964,424.271923 L562.490121,424.033831 L562.276872,421.688089 L562.066163,419.345053 L570.971825,419.345053 C579.311364,419.345053 579.902875,419.253063 580.232902,417.900271 C580.659399,416.168697 581.464158,416.155169 584.152612,417.82722 M257.951825,417.205325 C263.998251,420.482433 255.908369,422.334943 238.844594,421.57746 C234.694726,421.39407 234.122873,421.200048 234.122873,419.98276 C234.122873,418.680422 234.660625,418.595371 243.04168,418.587398 C249.324191,418.579424 252.477252,418.284405 253.707522,417.593368 C255.929354,416.344187 256.301846,416.309635 257.951825,417.205325 M236.215715,425.427823 L240.57845,425.427823 L240.57845,428.099838 L240.57845,430.774359 L229.806265,430.764333 C216.494922,430.754306 215.815249,430.608925 216.089683,427.846673 L216.297432,425.761199 L222.293948,425.568192 C227.431255,425.402758 228.408446,425.182179 229.131721,424.036671 C229.975542,422.698158 229.978107,422.698158 230.914261,424.061737 C231.696527,425.197218 232.586515,425.427823 236.215715,425.427823 M362.05384,426.109322 C362.413352,426.550229 365.151763,427.122902 368.134949,427.381365 L373.563327,427.852679 L373.356799,429.958391 L373.150271,432.064103 L361.056895,432.064103 C348.173102,432.064103 347.410732,431.868988 347.818689,428.686348 C347.974223,427.492858 348.637153,427.29521 353.433198,426.996204 C359.532155,426.618646 360.536749,426.21068 360.651487,424.084697 C360.72543,422.71383 360.753477,422.703694 361.064544,423.955465 C361.248124,424.697912 361.694327,425.668415 362.05384,426.109322 M496.055078,426.660197 C497.541033,426.916981 500.510402,427.144136 502.654241,427.163888 C506.344997,427.200924 506.548204,427.287342 506.548204,428.847798 C506.548204,430.613187 501.503579,431.072435 487.273976,430.600842 C481.919459,430.423068 482.363975,430.573682 482.059164,428.847798 C481.850876,427.679925 482.300473,427.487337 486.03187,427.141667 C490.629439,426.712047 492.2805,425.813304 492.404964,423.665208 C492.460846,422.677578 492.610712,422.843006 492.915523,424.228157 C493.283837,425.897252 493.756294,426.265145 496.055078,426.660197 M263.82815,424.937116 C264.068274,425.336665 266.77825,425.665061 269.852371,425.665061 L275.438563,425.665061 L275.438563,427.777743 C275.438563,430.670367 274.945121,430.774359 261.036373,430.774359 L248.861271,430.774359 L248.512959,428.401696 C248.048542,425.254565 247.834805,425.361294 255.616421,424.88512 C259.358141,424.655242 262.640721,424.408945 262.907233,424.337793 C263.176383,424.263903 263.590664,424.53483 263.82815,424.937116 M303.613125,426.122234 C307.566792,426.161809 307.726509,426.238131 307.716036,428.115091 C307.69509,432.191262 307.684616,432.194089 287.303594,432.00187 L281.89414,431.950988 L281.89414,428.963116 L281.89414,425.97807 L288.002686,425.712356 C291.361994,425.565365 295.323516,425.587979 296.805486,425.763237 C298.284839,425.935669 301.348276,426.096793 303.613125,426.122234 M329.751529,424.821249 C329.95493,425.166755 332.369673,425.506776 335.12081,425.580812 C340.714355,425.728886 341.285444,425.931802 341.285444,427.744333 C341.285444,430.494664 339.999842,430.774359 327.253339,430.774359 L314.887563,430.774359 L314.452075,428.948117 C313.620215,425.462902 314.329513,424.999486 320.913989,424.736244 C324.277939,424.601881 327.56105,424.426386 328.207763,424.344123 C328.854475,424.259118 329.548127,424.475744 329.751529,424.821249 M394.958708,426.536596 C395.876343,427.190199 398.031357,427.496193 401.717496,427.496193 L407.132325,427.496193 L407.132325,429.383564 C407.132325,431.961258 406.609819,432.064072 393.534163,432.064072 C381.638696,432.064072 381.812864,432.105687 381.342349,429.126529 C381.157782,427.951513 381.636096,427.785052 386.172283,427.45213 C388.943386,427.24895 391.579313,426.73488 392.029033,426.311385 C393.061048,425.339548 393.305404,425.359131 394.958708,426.536596 M434.951472,427.441044 C439.35967,427.593728 440.457232,427.839023 440.626483,428.715076 C441.129104,431.278158 439.362235,431.69616 427.206992,431.883886 L415.521035,432.064103 L415.087652,430.384583 C414.400393,427.711369 415.185099,427.29587 420.896011,427.29587 C424.832361,427.29587 426.47101,427.028048 427.101852,426.287157 C427.858349,425.396085 428.048115,425.393582 428.722551,426.267133 C429.263639,426.962969 431.102312,427.310888 434.951472,427.441044 M612.842659,426.765498 C613.320902,427.205015 613.710775,428.183012 613.710775,428.939795 C613.710775,429.696579 613.320902,430.450451 612.842659,430.613451 C612.133091,430.860861 556.201969,430.808468 549.771671,430.555237 C548.245969,430.494112 547.863894,430.11281 547.863894,428.639993 C547.863894,426.753855 557.582118,424.783308 559.692628,426.241571 C560.682905,426.928498 585.182498,426.707284 587.565919,425.98834 C590.297627,425.167521 611.82899,425.82534 612.842659,426.765498 M532.407794,426.256664 C538.359709,426.144039 539.486746,426.744704 538.518075,429.508338 C537.739443,431.729064 513.351107,430.790526 513.05813,428.529371 C512.844336,426.889094 513.073967,426.793797 517.281219,426.785133 C519.727971,426.77647 522.203756,426.427045 522.784431,426.002536 C523.365106,425.580916 524.473666,425.488506 525.247019,425.80039 C526.023012,426.109385 529.243117,426.31442 532.407794,426.256664 M474.270321,429.284524 C474.270321,431.794674 473.611983,431.93028 460.944195,432.048575 C449.138517,432.161098 447.641581,431.728314 448.749262,428.534364 C449.655783,425.926115 474.270321,426.650308 474.270321,429.284524 M212.425129,430.251218 C212.425129,433.246051 213.598326,433.668434 223.030731,434.085367 C232.499554,434.505025 231.831013,434.194369 231.245715,437.905891 L230.785281,440.813521 L217.869702,441.009725 C203.679474,441.227729 204.077477,441.358532 204.623755,436.679617 C204.878685,434.510475 205.32091,433.859188 206.957144,433.262401 C208.067909,432.856369 209.176074,431.938026 209.420598,431.218612 C210.627613,427.681494 212.425129,427.103783 212.425129,430.251218 M278.998857,433.095894 C278.812936,433.379364 278.185454,433.438013 277.604452,433.227854 C276.855606,432.956603 276.762645,432.641365 277.281674,432.147736 C277.687084,431.766517 278.043432,430.852571 278.077001,430.117015 C278.120899,429.132201 278.293908,429.281267 278.735469,430.679068 C279.065995,431.724974 279.184778,432.812424 278.998857,433.095894 M544.367187,430.965632 C544.792288,431.914303 545.894891,432.662843 547.191446,432.886366 C549.189417,433.226847 549.301005,433.413982 549.0672,436.005283 C548.721807,439.781771 548.721807,439.781771 535.262075,439.792168 L523.332703,439.802564 L523.829539,436.857787 C524.103197,435.238549 524.395453,433.835036 524.48313,433.73887 C524.56815,433.645302 528.521581,433.362 533.272075,433.112487 C541.564184,432.675839 541.922862,432.592668 542.32405,431.033209 C542.847455,428.990318 543.47182,428.969526 544.367187,430.965632 M184.659238,431.870469 L196.680529,432.314612 L196.228073,434.787987 C195.310159,439.793245 194.795295,440.120369 188.588325,439.644311 C185.538147,439.412931 173.056599,439.032616 160.850685,438.803895 C134.782451,438.31188 136.581874,438.593791 137.967846,435.205535 C140.115712,429.950279 137.590799,430.128468 184.659238,431.870469 M412.621009,433.788023 C413.322223,434.064523 419.7687,434.262023 426.947673,434.22779 C441.110112,434.161957 441.323865,434.222523 440.372403,438.048762 L439.937077,439.802564 L360.009099,439.802564 L280.083727,439.802564 L280.083727,437.485228 C280.083727,436.210693 279.755277,434.836091 279.353838,434.430557 C278.842917,433.914423 282.977212,433.698489 293.080951,433.711656 C301.034127,433.719556 315.986409,433.693223 326.309115,433.648456 C336.63182,433.606323 351.448552,433.91969 359.232289,434.34629 C372.383311,435.067825 373.551133,435.033591 375.704303,433.861756 C377.841833,432.697821 378.105114,432.689921 379.150418,433.745889 C381.629432,436.250193 409.591973,434.738657 409.980377,432.078987 C410.225411,430.393652 410.259299,430.383118 410.791075,431.80512 C411.096064,432.621455 411.919795,433.514156 412.621009,433.788023 M260.461739,433.896397 L274.147448,433.896397 L273.655271,435.570361 C273.385367,436.491042 272.999034,437.966921 272.797929,438.851333 C272.258122,441.225573 270.871557,441.36786 253.695622,440.840561 L237.996219,440.357901 L237.996219,437.127149 C237.996219,434.063793 238.102064,433.896397 240.02579,433.896397 C241.142451,433.896397 242.446985,433.402577 242.925932,432.79437 C243.69066,431.82068 243.965856,431.82068 245.286267,432.79437 C246.479665,433.675991 249.51476,433.896397 260.461739,433.896397 M481.667724,434.527616 C482.037033,434.869893 482.128706,436.197733 481.869403,437.477023 L481.397944,439.802564 L464.493507,439.627784 L447.59169,439.455432 L447.374295,437.027936 L447.1569,434.600441 L450.517357,434.590731 C457.308991,434.573738 475.538752,433.782375 475.879251,433.491075 C476.421429,433.027423 480.916008,433.830925 481.667724,434.527616 M515.563804,433.697068 C516.92772,433.704445 517.078688,433.947878 516.69346,435.509292 C515.896974,438.718181 515.384205,438.85588 502.361932,439.342746 L490.042441,439.802564 L489.938325,437.737072 C489.881061,436.601052 489.802975,435.302742 489.763931,434.85276 C489.693653,434.024105 506.024202,432.993818 511.560555,433.478225 C512.895839,433.596253 514.697041,433.694609 515.563804,433.697068 M583.76767,436.252135 C583.423841,439.973817 583.225879,440.023506 570.595378,439.653325 C558.623883,439.300536 557.662725,439.047123 557.066234,436.068287 C556.501,433.253423 556.618215,433.231063 570.69436,433.422364 L584.015123,433.601244 L583.76767,436.252135 M281.911502,449.173979 C281.085385,450.058609 280.407345,451.476618 280.407345,452.327424 C280.407345,453.17823 279.963112,455.811304 279.422759,458.181591 C278.882406,460.549277 278.09006,464.358388 277.664013,466.648018 C277.235367,468.937648 276.585904,472.14313 276.222204,473.769287 C275.855907,475.398047 275.557154,477.799556 275.557154,479.108288 C275.557154,483.994566 267.924663,483.64852 375.122458,483.64852 L471.609307,483.64852 L473.087486,482.168066 C474.615023,480.638177 474.664382,471.029537 473.22777,454.965702 C472.487382,446.681405 484.071207,447.568637 376.691562,447.568637 L283.418256,447.568637 L281.911502,449.173979 M470.442077,450.687208 C471.04423,451.073832 471.341397,455.257842 471.484766,465.328595 L471.688091,479.427121 L375.5,479.607192 L279.311909,479.784615 L279.702918,476.074616 C279.919276,474.035574 280.586597,469.822434 281.186143,466.716204 C281.78569,463.609973 282.479078,459.637812 282.73193,457.890061 C282.982176,456.14231 283.610396,453.67957 284.126527,452.416422 L285.064948,450.120513 L377.332526,450.131105 C428.080216,450.13905 469.980687,450.387972 470.442077,450.687208 M182.921046,491.107526 L326.152333,491.286852 L327.103224,493.570622 C328.272353,496.371273 330.023449,497.953561 332.751416,498.670866 L334.829868,499.219392 L332.1019,499.836485 C326.892781,501.017927 42.0903708,500.232057 39.6897593,499.029518 C36.9332131,497.650289 36.5954647,497.070117 36.5824744,493.684019 C36.5694841,490.413956 37.0735086,489.593804 38.6141607,490.379673 C39.2039213,490.682945 104.142539,491.009952 182.921046,491.107526 M713.095423,493.770927 C712.920807,496.718621 712.563758,497.532575 710.921853,498.736816 L708.961991,500.174716 L565.323941,500.374995 C486.322231,500.485405 420.351517,500.387833 418.720036,500.15931 C415.905341,499.766455 415.178212,498.462075 417.773986,498.462075 C419.243882,498.462075 422.389564,495.296128 423.04372,493.157252 L423.518048,491.616646 L566.116225,491.606375 C656.978746,491.598672 709.092301,491.354743 709.756882,490.931076 C712.376112,489.264653 713.316949,490.063201 713.095423,493.770927" id="path1"></path>
                </g>
            </g>
        </g>
    </g>
</svg>